<svg width="33" height="32" viewBox="0 0 33 32" fill="none" xmlns="http://www.w3.org/2000/svg">
<path d="M32.1883 0H0.737671V32H32.1883V0Z" fill="#F16D7F"/>
<g clip-path="url(#clip0)">
<path d="M16.1368 12.6816C14.0217 12.6816 12.3156 14.3849 12.3156 16.4967C12.3156 18.6084 14.0217 20.3117 16.1368 20.3117C18.252 20.3117 19.9581 18.6084 19.9581 16.4967C19.9581 14.3849 18.252 12.6816 16.1368 12.6816ZM16.1368 18.9769C14.77 18.9769 13.6525 17.8646 13.6525 16.4967C13.6525 15.1287 14.7666 14.0164 16.1368 14.0164C17.507 14.0164 18.6211 15.1287 18.6211 16.4967C18.6211 17.8646 17.5037 18.9769 16.1368 18.9769ZM21.0056 12.5256C21.0056 13.0203 20.6066 13.4154 20.1144 13.4154C19.6188 13.4154 19.2231 13.017 19.2231 12.5256C19.2231 12.0342 19.6222 11.6357 20.1144 11.6357C20.6066 11.6357 21.0056 12.0342 21.0056 12.5256ZM23.5365 13.4287C23.48 12.2367 23.2073 11.1808 22.3326 10.3109C21.4613 9.441 20.4037 9.16873 19.2098 9.10897C17.9793 9.03924 14.2911 9.03924 13.0606 9.10897C11.87 9.16541 10.8124 9.43768 9.93774 10.3076C9.06308 11.1775 8.7937 12.2334 8.73384 13.4254C8.664 14.6539 8.664 18.3361 8.73384 19.5646C8.79037 20.7566 9.06308 21.8125 9.93774 22.6824C10.8124 23.5523 11.8666 23.8246 13.0606 23.8844C14.2911 23.9541 17.9793 23.9541 19.2098 23.8844C20.4037 23.8279 21.4613 23.5556 22.3326 22.6824C23.2039 21.8125 23.4766 20.7566 23.5365 19.5646C23.6063 18.3361 23.6063 14.6572 23.5365 13.4287ZM21.9468 20.8828C21.6874 21.5336 21.1852 22.0349 20.5301 22.2972C19.549 22.6857 17.221 22.5961 16.1368 22.5961C15.0527 22.5961 12.7213 22.6824 11.7436 22.2972C11.0918 22.0383 10.5896 21.5369 10.3268 20.8828C9.93774 19.9033 10.0275 17.5791 10.0275 16.4967C10.0275 15.4142 9.94106 13.0867 10.3268 12.1105C10.5862 11.4597 11.0884 10.9584 11.7436 10.6961C12.7247 10.3076 15.0527 10.3972 16.1368 10.3972C17.221 10.3972 19.5523 10.3109 20.5301 10.6961C21.1819 10.9551 21.6841 11.4564 21.9468 12.1105C22.3359 13.09 22.2461 15.4142 22.2461 16.4967C22.2461 17.5791 22.3359 19.9066 21.9468 20.8828Z" fill="white"/>
</g>
<defs>
<clipPath id="clip0">
<rect width="14.8991" height="17" fill="white" transform="translate(8.68396 8)"/>
</clipPath>
</defs>
</svg>
